# xmcd CD database file
#
# Track frame offsets:
#	150
#	16740
#	34850
#
# Disc length: 695 seconds
#
# Revision: 0
# Processed by: cddbd v1.5PL3 Copyright (c) Steve Scherf et al.
# Submitted via: CDex 1.50
#
DISCID=1702b503
DTITLE=SUCK DOWN - Melt
DYEAR=1999
DGENRE=Hardcore
TTITLE0=Melt
TTITLE1=D.W.S.
TTITLE2=Are You Gonna Go My Way
EXTD=YEAR: 1999
EXTT0=
EXTT1=
EXTT2=
PLAYORDER=
